M48
; DRILL file KiCad 10.0.3-10.0.3~ubuntu24.04.1 date 2026-07-21T12:03:52
; FORMAT={-:-/ absolute / metric / decimal}
; #@! TF.CreationDate,2026-07-21T12:03:52+03:00
; #@! TF.GenerationSoftware,Kicad,Pcbnew,10.0.3-10.0.3~ubuntu24.04.1
; #@! TF.FileFunction,MixedPlating,1,2
FMAT,2
METRIC
; #@! TA.AperFunction,Plated,PTH,ViaDrill
T1C0.400
; #@! TA.AperFunction,Plated,PTH,ComponentDrill
T2C1.000
; #@! TA.AperFunction,Plated,PTH,ComponentDrill
T3C1.100
; #@! TA.AperFunction,NonPlated,NPTH,ComponentDrill
T4C2.200
; #@! TA.AperFunction,NonPlated,NPTH,ComponentDrill
T5C3.200
%
G90
G05
T1
X33.862Y-30.05
X34.175Y-45.0
X35.825Y-24.0
X35.95Y-38.0
X41.95Y-24.0
T2
X35.0Y-8.0
X37.5Y-8.0
X45.46Y-17.0
X45.46Y-19.54
X45.46Y-22.08
X45.46Y-24.62
X45.46Y-27.16
X45.46Y-29.7
X45.46Y-32.24
X45.46Y-34.78
X48.0Y-17.0
X48.0Y-19.54
X48.0Y-22.08
X48.0Y-24.62
X48.0Y-27.16
X48.0Y-29.7
X48.0Y-32.24
X48.0Y-34.78
T3
X3.77Y-8.0
X3.77Y-10.54
X3.77Y-13.08
X3.77Y-15.62
X3.77Y-18.16
X3.77Y-20.7
X3.77Y-23.24
X3.77Y-25.78
X3.77Y-28.32
X3.77Y-30.86
X3.77Y-33.4
X3.77Y-35.94
X3.77Y-38.48
X3.77Y-41.02
X3.77Y-43.56
X3.77Y-46.1
X3.77Y-48.64
X3.77Y-51.18
X3.77Y-53.72
X3.77Y-56.26
X3.77Y-58.8
X3.77Y-61.34
X29.17Y-8.0
X29.17Y-10.54
X29.17Y-13.08
X29.17Y-15.62
X29.17Y-18.16
X29.17Y-20.7
X29.17Y-23.24
X29.17Y-25.78
X29.17Y-28.32
X29.17Y-30.86
X29.17Y-33.4
X29.17Y-35.94
X29.17Y-38.48
X29.17Y-41.02
X29.17Y-43.56
X29.17Y-46.1
X29.17Y-48.64
X29.17Y-51.18
X29.17Y-53.72
X29.17Y-56.26
X29.17Y-58.8
X29.17Y-61.34
T4
X2.47Y-4.0
X30.47Y-66.7
T5
X47.0Y-3.0
X47.0Y-68.0
M30
