%TF.GenerationSoftware,KiCad,Pcbnew,10.0.3-10.0.3~ubuntu24.04.1*%
%TF.CreationDate,2026-07-21T12:03:52+03:00*%
%TF.ProjectId,main,6d61696e-2e6b-4696-9361-645f70636258,rev?*%
%TF.SameCoordinates,Original*%
%TF.FileFunction,Copper,L2,Bot*%
%TF.FilePolarity,Positive*%
%FSLAX46Y46*%
G04 Gerber Fmt 4.6, Leading zero omitted, Abs format (unit mm)*
G04 Created by KiCad (PCBNEW 10.0.3-10.0.3~ubuntu24.04.1) date 2026-07-21 12:03:52*
%MOMM*%
%LPD*%
G01*
G04 APERTURE LIST*
G04 Aperture macros list*
%AMRoundRect*
0 Rectangle with rounded corners*
0 $1 Rounding radius*
0 $2 $3 $4 $5 $6 $7 $8 $9 X,Y pos of 4 corners*
0 Add a 4 corners polygon primitive as box body*
4,1,4,$2,$3,$4,$5,$6,$7,$8,$9,$2,$3,0*
0 Add four circle primitives for the rounded corners*
1,1,$1+$1,$2,$3*
1,1,$1+$1,$4,$5*
1,1,$1+$1,$6,$7*
1,1,$1+$1,$8,$9*
0 Add four rect primitives between the rounded corners*
20,1,$1+$1,$2,$3,$4,$5,0*
20,1,$1+$1,$4,$5,$6,$7,0*
20,1,$1+$1,$6,$7,$8,$9,0*
20,1,$1+$1,$8,$9,$2,$3,0*%
G04 Aperture macros list end*
%TA.AperFunction,ComponentPad*%
%ADD10R,1.700000X1.700000*%
%TD*%
%TA.AperFunction,ComponentPad*%
%ADD11C,1.700000*%
%TD*%
%TA.AperFunction,ComponentPad*%
%ADD12R,1.900000X1.900000*%
%TD*%
%TA.AperFunction,ComponentPad*%
%ADD13C,1.900000*%
%TD*%
%TA.AperFunction,ComponentPad*%
%ADD14RoundRect,0.250000X-0.600000X-0.750000X0.600000X-0.750000X0.600000X0.750000X-0.600000X0.750000X0*%
%TD*%
%TA.AperFunction,ComponentPad*%
%ADD15O,1.700000X2.000000*%
%TD*%
%TA.AperFunction,ViaPad*%
%ADD16C,0.800000*%
%TD*%
G04 APERTURE END LIST*
D10*
%TO.P,J4,1*%
%TO.N,GND*%
X48000000Y-17000000D03*
D11*
%TO.P,J4,2*%
X45460000Y-17000000D03*
%TO.P,J4,3*%
%TO.N,E22_VCC*%
X48000000Y-19540000D03*
%TO.P,J4,4*%
%TO.N,+3V3*%
X45460000Y-19540000D03*
%TO.P,J4,5*%
%TO.N,E22_TXD*%
X48000000Y-22080000D03*
%TO.P,J4,6*%
%TO.N,E22_RXD*%
X45460000Y-22080000D03*
%TO.P,J4,7*%
%TO.N,E22_M0*%
X48000000Y-24620000D03*
%TO.P,J4,8*%
%TO.N,E22_M1*%
X45460000Y-24620000D03*
%TO.P,J4,9*%
%TO.N,E22_AUX*%
X48000000Y-27160000D03*
%TO.P,J4,10*%
%TO.N,CONFIG_BTN*%
X45460000Y-27160000D03*
%TO.P,J4,11*%
%TO.N,LED_CTRL*%
X48000000Y-29700000D03*
%TO.P,J4,12*%
%TO.N,PIXHAWK_TX*%
X45460000Y-29700000D03*
%TO.P,J4,13*%
%TO.N,PIXHAWK_RX*%
X48000000Y-32240000D03*
%TO.P,J4,14*%
%TO.N,OLED_SDA*%
X45460000Y-32240000D03*
%TO.P,J4,15*%
%TO.N,OLED_SCL*%
X48000000Y-34780000D03*
%TO.P,J4,16*%
%TO.N,GND*%
X45460000Y-34780000D03*
%TD*%
D12*
%TO.P,U1,J1-1*%
%TO.N,+3V3*%
X3770000Y-8000000D03*
D13*
%TO.P,U1,J1-2*%
X3770000Y-10540000D03*
%TO.P,U1,J1-3*%
%TO.N,N/C*%
X3770000Y-13080000D03*
%TO.P,U1,J1-4*%
%TO.N,E22_TXD*%
X3770000Y-15620000D03*
%TO.P,U1,J1-5*%
%TO.N,E22_RXD*%
X3770000Y-18160000D03*
%TO.P,U1,J1-6*%
%TO.N,E22_AUX*%
X3770000Y-20700000D03*
%TO.P,U1,J1-7*%
%TO.N,E22_M0*%
X3770000Y-23240000D03*
%TO.P,U1,J1-8*%
%TO.N,N/C*%
X3770000Y-25780000D03*
%TO.P,U1,J1-9*%
%TO.N,PIXHAWK_RX*%
X3770000Y-28320000D03*
%TO.P,U1,J1-10*%
%TO.N,PIXHAWK_TX*%
X3770000Y-30860000D03*
%TO.P,U1,J1-11*%
%TO.N,N/C*%
X3770000Y-33400000D03*
%TO.P,U1,J1-12*%
%TO.N,E22_M1*%
X3770000Y-35940000D03*
%TO.P,U1,J1-13*%
%TO.N,N/C*%
X3770000Y-38480000D03*
%TO.P,U1,J1-14*%
X3770000Y-41020000D03*
%TO.P,U1,J1-15*%
%TO.N,CONFIG_BTN*%
X3770000Y-43560000D03*
%TO.P,U1,J1-16*%
%TO.N,N/C*%
X3770000Y-46100000D03*
%TO.P,U1,J1-17*%
%TO.N,OLED_SDA*%
X3770000Y-48640000D03*
%TO.P,U1,J1-18*%
%TO.N,OLED_SCL*%
X3770000Y-51180000D03*
%TO.P,U1,J1-19*%
%TO.N,N/C*%
X3770000Y-53720000D03*
%TO.P,U1,J1-20*%
X3770000Y-56260000D03*
%TO.P,U1,J1-21*%
%TO.N,VSYS*%
X3770000Y-58800000D03*
%TO.P,U1,J1-22*%
%TO.N,GND*%
X3770000Y-61340000D03*
D12*
%TO.P,U1,J3-1*%
X29170000Y-8000000D03*
D13*
%TO.P,U1,J3-2*%
%TO.N,N/C*%
X29170000Y-10540000D03*
%TO.P,U1,J3-3*%
X29170000Y-13080000D03*
%TO.P,U1,J3-4*%
X29170000Y-15620000D03*
%TO.P,U1,J3-5*%
%TO.N,LED_CTRL*%
X29170000Y-18160000D03*
%TO.P,U1,J3-6*%
%TO.N,N/C*%
X29170000Y-20700000D03*
%TO.P,U1,J3-7*%
X29170000Y-23240000D03*
%TO.P,U1,J3-8*%
X29170000Y-25780000D03*
%TO.P,U1,J3-9*%
X29170000Y-28320000D03*
%TO.P,U1,J3-10*%
X29170000Y-30860000D03*
%TO.P,U1,J3-11*%
X29170000Y-33400000D03*
%TO.P,U1,J3-12*%
X29170000Y-35940000D03*
%TO.P,U1,J3-13*%
X29170000Y-38480000D03*
%TO.P,U1,J3-14*%
X29170000Y-41020000D03*
%TO.P,U1,J3-15*%
X29170000Y-43560000D03*
%TO.P,U1,J3-16*%
X29170000Y-46100000D03*
%TO.P,U1,J3-17*%
X29170000Y-48640000D03*
%TO.P,U1,J3-18*%
X29170000Y-51180000D03*
%TO.P,U1,J3-19*%
X29170000Y-53720000D03*
%TO.P,U1,J3-20*%
X29170000Y-56260000D03*
%TO.P,U1,J3-21*%
%TO.N,GND*%
X29170000Y-58800000D03*
%TO.P,U1,J3-22*%
X29170000Y-61340000D03*
%TD*%
D14*
%TO.P,J1,1*%
%TO.N,VIN_RAW*%
X35000000Y-8000000D03*
D15*
%TO.P,J1,2*%
%TO.N,GND*%
X37500000Y-8000000D03*
%TD*%
D16*
%TO.N,GND*%
X35950000Y-38000000D03*
X35825000Y-24000000D03*
X41950000Y-24000000D03*
X34175000Y-45000000D03*
X33862500Y-30050000D03*
%TD*%
M02*
