%TF.GenerationSoftware,KiCad,Pcbnew,10.0.3-10.0.3~ubuntu24.04.1*%
%TF.CreationDate,2026-07-21T12:03:52+03:00*%
%TF.ProjectId,main,6d61696e-2e6b-4696-9361-645f70636258,rev?*%
%TF.SameCoordinates,Original*%
%TF.FileFunction,Legend,Top*%
%TF.FilePolarity,Positive*%
%FSLAX46Y46*%
G04 Gerber Fmt 4.6, Leading zero omitted, Abs format (unit mm)*
G04 Created by KiCad (PCBNEW 10.0.3-10.0.3~ubuntu24.04.1) date 2026-07-21 12:03:52*
%MOMM*%
%LPD*%
G01*
G04 APERTURE LIST*
%ADD10C,0.150000*%
%ADD11C,0.158750*%
%ADD12C,0.120000*%
G04 APERTURE END LIST*
D10*
X34238095Y-28054819D02*
X34238095Y-28864342D01*
X34238095Y-28864342D02*
X34285714Y-28959580D01*
X34285714Y-28959580D02*
X34333333Y-29007200D01*
X34333333Y-29007200D02*
X34428571Y-29054819D01*
X34428571Y-29054819D02*
X34619047Y-29054819D01*
X34619047Y-29054819D02*
X34714285Y-29007200D01*
X34714285Y-29007200D02*
X34761904Y-28959580D01*
X34761904Y-28959580D02*
X34809523Y-28864342D01*
X34809523Y-28864342D02*
X34809523Y-28054819D01*
X35238095Y-28150057D02*
X35285714Y-28102438D01*
X35285714Y-28102438D02*
X35380952Y-28054819D01*
X35380952Y-28054819D02*
X35619047Y-28054819D01*
X35619047Y-28054819D02*
X35714285Y-28102438D01*
X35714285Y-28102438D02*
X35761904Y-28150057D01*
X35761904Y-28150057D02*
X35809523Y-28245295D01*
X35809523Y-28245295D02*
X35809523Y-28340533D01*
X35809523Y-28340533D02*
X35761904Y-28483390D01*
X35761904Y-28483390D02*
X35190476Y-29054819D01*
X35190476Y-29054819D02*
X35809523Y-29054819D01*
D11*
X45306666Y-68579271D02*
X45306666Y-67309271D01*
X45306666Y-67309271D02*
X45730000Y-68216414D01*
X45730000Y-68216414D02*
X46153333Y-67309271D01*
X46153333Y-67309271D02*
X46153333Y-68579271D01*
X46758095Y-68579271D02*
X46758095Y-67309271D01*
X46758095Y-67914033D02*
X47483810Y-67914033D01*
X47483810Y-68579271D02*
X47483810Y-67309271D01*
X48632857Y-67732604D02*
X48632857Y-68579271D01*
X48330476Y-67248795D02*
X48028095Y-68155937D01*
X48028095Y-68155937D02*
X48814286Y-68155937D01*
D10*
X33101009Y-17333333D02*
X33101009Y-17666666D01*
X33624819Y-17666666D02*
X32624819Y-17666666D01*
X32624819Y-17666666D02*
X32624819Y-17190476D01*
X33624819Y-16285714D02*
X33624819Y-16857142D01*
X33624819Y-16571428D02*
X32624819Y-16571428D01*
X32624819Y-16571428D02*
X32767676Y-16666666D01*
X32767676Y-16666666D02*
X32862914Y-16761904D01*
X32862914Y-16761904D02*
X32910533Y-16857142D01*
D11*
X776666Y-4579271D02*
X776666Y-3309271D01*
X776666Y-3309271D02*
X1200000Y-4216414D01*
X1200000Y-4216414D02*
X1623333Y-3309271D01*
X1623333Y-3309271D02*
X1623333Y-4579271D01*
X2228095Y-4579271D02*
X2228095Y-3309271D01*
X2228095Y-3914033D02*
X2953810Y-3914033D01*
X2953810Y-4579271D02*
X2953810Y-3309271D01*
X4163333Y-3309271D02*
X3558571Y-3309271D01*
X3558571Y-3309271D02*
X3498095Y-3914033D01*
X3498095Y-3914033D02*
X3558571Y-3853556D01*
X3558571Y-3853556D02*
X3679524Y-3793080D01*
X3679524Y-3793080D02*
X3981905Y-3793080D01*
X3981905Y-3793080D02*
X4102857Y-3853556D01*
X4102857Y-3853556D02*
X4163333Y-3914033D01*
X4163333Y-3914033D02*
X4223810Y-4034985D01*
X4223810Y-4034985D02*
X4223810Y-4337366D01*
X4223810Y-4337366D02*
X4163333Y-4458318D01*
X4163333Y-4458318D02*
X4102857Y-4518795D01*
X4102857Y-4518795D02*
X3981905Y-4579271D01*
X3981905Y-4579271D02*
X3679524Y-4579271D01*
X3679524Y-4579271D02*
X3558571Y-4518795D01*
X3558571Y-4518795D02*
X3498095Y-4458318D01*
X45306666Y-3579271D02*
X45306666Y-2309271D01*
X45306666Y-2309271D02*
X45730000Y-3216414D01*
X45730000Y-3216414D02*
X46153333Y-2309271D01*
X46153333Y-2309271D02*
X46153333Y-3579271D01*
X46758095Y-3579271D02*
X46758095Y-2309271D01*
X46758095Y-2914033D02*
X47483810Y-2914033D01*
X47483810Y-3579271D02*
X47483810Y-2309271D01*
X48028095Y-2430223D02*
X48088571Y-2369747D01*
X48088571Y-2369747D02*
X48209524Y-2309271D01*
X48209524Y-2309271D02*
X48511905Y-2309271D01*
X48511905Y-2309271D02*
X48632857Y-2369747D01*
X48632857Y-2369747D02*
X48693333Y-2430223D01*
X48693333Y-2430223D02*
X48753810Y-2551175D01*
X48753810Y-2551175D02*
X48753810Y-2672128D01*
X48753810Y-2672128D02*
X48693333Y-2853556D01*
X48693333Y-2853556D02*
X47967619Y-3579271D01*
X47967619Y-3579271D02*
X48753810Y-3579271D01*
D10*
X34833333Y-44024819D02*
X34500000Y-43548628D01*
X34261905Y-44024819D02*
X34261905Y-43024819D01*
X34261905Y-43024819D02*
X34642857Y-43024819D01*
X34642857Y-43024819D02*
X34738095Y-43072438D01*
X34738095Y-43072438D02*
X34785714Y-43120057D01*
X34785714Y-43120057D02*
X34833333Y-43215295D01*
X34833333Y-43215295D02*
X34833333Y-43358152D01*
X34833333Y-43358152D02*
X34785714Y-43453390D01*
X34785714Y-43453390D02*
X34738095Y-43501009D01*
X34738095Y-43501009D02*
X34642857Y-43548628D01*
X34642857Y-43548628D02*
X34261905Y-43548628D01*
X35166667Y-43024819D02*
X35785714Y-43024819D01*
X35785714Y-43024819D02*
X35452381Y-43405771D01*
X35452381Y-43405771D02*
X35595238Y-43405771D01*
X35595238Y-43405771D02*
X35690476Y-43453390D01*
X35690476Y-43453390D02*
X35738095Y-43501009D01*
X35738095Y-43501009D02*
X35785714Y-43596247D01*
X35785714Y-43596247D02*
X35785714Y-43834342D01*
X35785714Y-43834342D02*
X35738095Y-43929580D01*
X35738095Y-43929580D02*
X35690476Y-43977200D01*
X35690476Y-43977200D02*
X35595238Y-44024819D01*
X35595238Y-44024819D02*
X35309524Y-44024819D01*
X35309524Y-44024819D02*
X35214286Y-43977200D01*
X35214286Y-43977200D02*
X35166667Y-43929580D01*
X39174819Y-31166666D02*
X39174819Y-31642856D01*
X39174819Y-31642856D02*
X38174819Y-31642856D01*
X39174819Y-30309523D02*
X39174819Y-30880951D01*
X39174819Y-30595237D02*
X38174819Y-30595237D01*
X38174819Y-30595237D02*
X38317676Y-30690475D01*
X38317676Y-30690475D02*
X38412914Y-30785713D01*
X38412914Y-30785713D02*
X38460533Y-30880951D01*
X40833333Y-37024819D02*
X40500000Y-36548628D01*
X40261905Y-37024819D02*
X40261905Y-36024819D01*
X40261905Y-36024819D02*
X40642857Y-36024819D01*
X40642857Y-36024819D02*
X40738095Y-36072438D01*
X40738095Y-36072438D02*
X40785714Y-36120057D01*
X40785714Y-36120057D02*
X40833333Y-36215295D01*
X40833333Y-36215295D02*
X40833333Y-36358152D01*
X40833333Y-36358152D02*
X40785714Y-36453390D01*
X40785714Y-36453390D02*
X40738095Y-36501009D01*
X40738095Y-36501009D02*
X40642857Y-36548628D01*
X40642857Y-36548628D02*
X40261905Y-36548628D01*
X41214286Y-36120057D02*
X41261905Y-36072438D01*
X41261905Y-36072438D02*
X41357143Y-36024819D01*
X41357143Y-36024819D02*
X41595238Y-36024819D01*
X41595238Y-36024819D02*
X41690476Y-36072438D01*
X41690476Y-36072438D02*
X41738095Y-36120057D01*
X41738095Y-36120057D02*
X41785714Y-36215295D01*
X41785714Y-36215295D02*
X41785714Y-36310533D01*
X41785714Y-36310533D02*
X41738095Y-36453390D01*
X41738095Y-36453390D02*
X41166667Y-37024819D01*
X41166667Y-37024819D02*
X41785714Y-37024819D01*
X34833333Y-36679580D02*
X34785714Y-36727200D01*
X34785714Y-36727200D02*
X34642857Y-36774819D01*
X34642857Y-36774819D02*
X34547619Y-36774819D01*
X34547619Y-36774819D02*
X34404762Y-36727200D01*
X34404762Y-36727200D02*
X34309524Y-36631961D01*
X34309524Y-36631961D02*
X34261905Y-36536723D01*
X34261905Y-36536723D02*
X34214286Y-36346247D01*
X34214286Y-36346247D02*
X34214286Y-36203390D01*
X34214286Y-36203390D02*
X34261905Y-36012914D01*
X34261905Y-36012914D02*
X34309524Y-35917676D01*
X34309524Y-35917676D02*
X34404762Y-35822438D01*
X34404762Y-35822438D02*
X34547619Y-35774819D01*
X34547619Y-35774819D02*
X34642857Y-35774819D01*
X34642857Y-35774819D02*
X34785714Y-35822438D01*
X34785714Y-35822438D02*
X34833333Y-35870057D01*
X35214286Y-35870057D02*
X35261905Y-35822438D01*
X35261905Y-35822438D02*
X35357143Y-35774819D01*
X35357143Y-35774819D02*
X35595238Y-35774819D01*
X35595238Y-35774819D02*
X35690476Y-35822438D01*
X35690476Y-35822438D02*
X35738095Y-35870057D01*
X35738095Y-35870057D02*
X35785714Y-35965295D01*
X35785714Y-35965295D02*
X35785714Y-36060533D01*
X35785714Y-36060533D02*
X35738095Y-36203390D01*
X35738095Y-36203390D02*
X35166667Y-36774819D01*
X35166667Y-36774819D02*
X35785714Y-36774819D01*
X46396666Y-13684819D02*
X46396666Y-14399104D01*
X46396666Y-14399104D02*
X46349047Y-14541961D01*
X46349047Y-14541961D02*
X46253809Y-14637200D01*
X46253809Y-14637200D02*
X46110952Y-14684819D01*
X46110952Y-14684819D02*
X46015714Y-14684819D01*
X47301428Y-14018152D02*
X47301428Y-14684819D01*
X47063333Y-13637200D02*
X46825238Y-14351485D01*
X46825238Y-14351485D02*
X47444285Y-14351485D01*
X1738095Y-1454819D02*
X1738095Y-2264342D01*
X1738095Y-2264342D02*
X1785714Y-2359580D01*
X1785714Y-2359580D02*
X1833333Y-2407200D01*
X1833333Y-2407200D02*
X1928571Y-2454819D01*
X1928571Y-2454819D02*
X2119047Y-2454819D01*
X2119047Y-2454819D02*
X2214285Y-2407200D01*
X2214285Y-2407200D02*
X2261904Y-2359580D01*
X2261904Y-2359580D02*
X2309523Y-2264342D01*
X2309523Y-2264342D02*
X2309523Y-1454819D01*
X3309523Y-2454819D02*
X2738095Y-2454819D01*
X3023809Y-2454819D02*
X3023809Y-1454819D01*
X3023809Y-1454819D02*
X2928571Y-1597676D01*
X2928571Y-1597676D02*
X2833333Y-1692914D01*
X2833333Y-1692914D02*
X2738095Y-1740533D01*
X40904761Y-15150057D02*
X40809523Y-15102438D01*
X40809523Y-15102438D02*
X40714285Y-15007200D01*
X40714285Y-15007200D02*
X40571428Y-14864342D01*
X40571428Y-14864342D02*
X40476190Y-14816723D01*
X40476190Y-14816723D02*
X40380952Y-14816723D01*
X40428571Y-15054819D02*
X40333333Y-15007200D01*
X40333333Y-15007200D02*
X40238095Y-14911961D01*
X40238095Y-14911961D02*
X40190476Y-14721485D01*
X40190476Y-14721485D02*
X40190476Y-14388152D01*
X40190476Y-14388152D02*
X40238095Y-14197676D01*
X40238095Y-14197676D02*
X40333333Y-14102438D01*
X40333333Y-14102438D02*
X40428571Y-14054819D01*
X40428571Y-14054819D02*
X40619047Y-14054819D01*
X40619047Y-14054819D02*
X40714285Y-14102438D01*
X40714285Y-14102438D02*
X40809523Y-14197676D01*
X40809523Y-14197676D02*
X40857142Y-14388152D01*
X40857142Y-14388152D02*
X40857142Y-14721485D01*
X40857142Y-14721485D02*
X40809523Y-14911961D01*
X40809523Y-14911961D02*
X40714285Y-15007200D01*
X40714285Y-15007200D02*
X40619047Y-15054819D01*
X40619047Y-15054819D02*
X40428571Y-15054819D01*
X41809523Y-15054819D02*
X41238095Y-15054819D01*
X41523809Y-15054819D02*
X41523809Y-14054819D01*
X41523809Y-14054819D02*
X41428571Y-14197676D01*
X41428571Y-14197676D02*
X41333333Y-14292914D01*
X41333333Y-14292914D02*
X41238095Y-14340533D01*
X35916666Y-3904819D02*
X35916666Y-4619104D01*
X35916666Y-4619104D02*
X35869047Y-4761961D01*
X35869047Y-4761961D02*
X35773809Y-4857200D01*
X35773809Y-4857200D02*
X35630952Y-4904819D01*
X35630952Y-4904819D02*
X35535714Y-4904819D01*
X36916666Y-4904819D02*
X36345238Y-4904819D01*
X36630952Y-4904819D02*
X36630952Y-3904819D01*
X36630952Y-3904819D02*
X36535714Y-4047676D01*
X36535714Y-4047676D02*
X36440476Y-4142914D01*
X36440476Y-4142914D02*
X36345238Y-4190533D01*
X34833333Y-23024819D02*
X34500000Y-22548628D01*
X34261905Y-23024819D02*
X34261905Y-22024819D01*
X34261905Y-22024819D02*
X34642857Y-22024819D01*
X34642857Y-22024819D02*
X34738095Y-22072438D01*
X34738095Y-22072438D02*
X34785714Y-22120057D01*
X34785714Y-22120057D02*
X34833333Y-22215295D01*
X34833333Y-22215295D02*
X34833333Y-22358152D01*
X34833333Y-22358152D02*
X34785714Y-22453390D01*
X34785714Y-22453390D02*
X34738095Y-22501009D01*
X34738095Y-22501009D02*
X34642857Y-22548628D01*
X34642857Y-22548628D02*
X34261905Y-22548628D01*
X35785714Y-23024819D02*
X35214286Y-23024819D01*
X35500000Y-23024819D02*
X35500000Y-22024819D01*
X35500000Y-22024819D02*
X35404762Y-22167676D01*
X35404762Y-22167676D02*
X35309524Y-22262914D01*
X35309524Y-22262914D02*
X35214286Y-22310533D01*
D11*
X28776666Y-67279271D02*
X28776666Y-66009271D01*
X28776666Y-66009271D02*
X29200000Y-66916414D01*
X29200000Y-66916414D02*
X29623333Y-66009271D01*
X29623333Y-66009271D02*
X29623333Y-67279271D01*
X30228095Y-67279271D02*
X30228095Y-66009271D01*
X30228095Y-66614033D02*
X30953810Y-66614033D01*
X30953810Y-67279271D02*
X30953810Y-66009271D01*
X32102857Y-66009271D02*
X31860952Y-66009271D01*
X31860952Y-66009271D02*
X31740000Y-66069747D01*
X31740000Y-66069747D02*
X31679524Y-66130223D01*
X31679524Y-66130223D02*
X31558571Y-66311652D01*
X31558571Y-66311652D02*
X31498095Y-66553556D01*
X31498095Y-66553556D02*
X31498095Y-67037366D01*
X31498095Y-67037366D02*
X31558571Y-67158318D01*
X31558571Y-67158318D02*
X31619048Y-67218795D01*
X31619048Y-67218795D02*
X31740000Y-67279271D01*
X31740000Y-67279271D02*
X31981905Y-67279271D01*
X31981905Y-67279271D02*
X32102857Y-67218795D01*
X32102857Y-67218795D02*
X32163333Y-67158318D01*
X32163333Y-67158318D02*
X32223810Y-67037366D01*
X32223810Y-67037366D02*
X32223810Y-66734985D01*
X32223810Y-66734985D02*
X32163333Y-66614033D01*
X32163333Y-66614033D02*
X32102857Y-66553556D01*
X32102857Y-66553556D02*
X31981905Y-66493080D01*
X31981905Y-66493080D02*
X31740000Y-66493080D01*
X31740000Y-66493080D02*
X31619048Y-66553556D01*
X31619048Y-66553556D02*
X31558571Y-66614033D01*
X31558571Y-66614033D02*
X31498095Y-66734985D01*
D10*
X34024819Y-52166666D02*
X33548628Y-52499999D01*
X34024819Y-52738094D02*
X33024819Y-52738094D01*
X33024819Y-52738094D02*
X33024819Y-52357142D01*
X33024819Y-52357142D02*
X33072438Y-52261904D01*
X33072438Y-52261904D02*
X33120057Y-52214285D01*
X33120057Y-52214285D02*
X33215295Y-52166666D01*
X33215295Y-52166666D02*
X33358152Y-52166666D01*
X33358152Y-52166666D02*
X33453390Y-52214285D01*
X33453390Y-52214285D02*
X33501009Y-52261904D01*
X33501009Y-52261904D02*
X33548628Y-52357142D01*
X33548628Y-52357142D02*
X33548628Y-52738094D01*
X33358152Y-51309523D02*
X34024819Y-51309523D01*
X32977200Y-51547618D02*
X33691485Y-51785713D01*
X33691485Y-51785713D02*
X33691485Y-51166666D01*
X40833333Y-22679580D02*
X40785714Y-22727200D01*
X40785714Y-22727200D02*
X40642857Y-22774819D01*
X40642857Y-22774819D02*
X40547619Y-22774819D01*
X40547619Y-22774819D02*
X40404762Y-22727200D01*
X40404762Y-22727200D02*
X40309524Y-22631961D01*
X40309524Y-22631961D02*
X40261905Y-22536723D01*
X40261905Y-22536723D02*
X40214286Y-22346247D01*
X40214286Y-22346247D02*
X40214286Y-22203390D01*
X40214286Y-22203390D02*
X40261905Y-22012914D01*
X40261905Y-22012914D02*
X40309524Y-21917676D01*
X40309524Y-21917676D02*
X40404762Y-21822438D01*
X40404762Y-21822438D02*
X40547619Y-21774819D01*
X40547619Y-21774819D02*
X40642857Y-21774819D01*
X40642857Y-21774819D02*
X40785714Y-21822438D01*
X40785714Y-21822438D02*
X40833333Y-21870057D01*
X41785714Y-22774819D02*
X41214286Y-22774819D01*
X41500000Y-22774819D02*
X41500000Y-21774819D01*
X41500000Y-21774819D02*
X41404762Y-21917676D01*
X41404762Y-21917676D02*
X41309524Y-22012914D01*
X41309524Y-22012914D02*
X41214286Y-22060533D01*
X40199580Y-45166666D02*
X40247200Y-45214285D01*
X40247200Y-45214285D02*
X40294819Y-45357142D01*
X40294819Y-45357142D02*
X40294819Y-45452380D01*
X40294819Y-45452380D02*
X40247200Y-45595237D01*
X40247200Y-45595237D02*
X40151961Y-45690475D01*
X40151961Y-45690475D02*
X40056723Y-45738094D01*
X40056723Y-45738094D02*
X39866247Y-45785713D01*
X39866247Y-45785713D02*
X39723390Y-45785713D01*
X39723390Y-45785713D02*
X39532914Y-45738094D01*
X39532914Y-45738094D02*
X39437676Y-45690475D01*
X39437676Y-45690475D02*
X39342438Y-45595237D01*
X39342438Y-45595237D02*
X39294819Y-45452380D01*
X39294819Y-45452380D02*
X39294819Y-45357142D01*
X39294819Y-45357142D02*
X39342438Y-45214285D01*
X39342438Y-45214285D02*
X39390057Y-45166666D01*
X39294819Y-44833332D02*
X39294819Y-44214285D01*
X39294819Y-44214285D02*
X39675771Y-44547618D01*
X39675771Y-44547618D02*
X39675771Y-44404761D01*
X39675771Y-44404761D02*
X39723390Y-44309523D01*
X39723390Y-44309523D02*
X39771009Y-44261904D01*
X39771009Y-44261904D02*
X39866247Y-44214285D01*
X39866247Y-44214285D02*
X40104342Y-44214285D01*
X40104342Y-44214285D02*
X40199580Y-44261904D01*
X40199580Y-44261904D02*
X40247200Y-44309523D01*
X40247200Y-44309523D02*
X40294819Y-44404761D01*
X40294819Y-44404761D02*
X40294819Y-44690475D01*
X40294819Y-44690475D02*
X40247200Y-44785713D01*
X40247200Y-44785713D02*
X40199580Y-44833332D01*
%TO.C,U2*%
D12*
X34090000Y-29440000D02*
X35910000Y-29440000D01*
X34090000Y-29490000D02*
X34090000Y-29440000D01*
X34090000Y-32560000D02*
X34090000Y-32510000D01*
X35910000Y-29440000D02*
X35910000Y-29490000D01*
X35910000Y-32510000D02*
X35910000Y-32560000D01*
X35910000Y-32560000D02*
X34090000Y-32560000D01*
X33550000Y-29490000D02*
X33310000Y-29160000D01*
X33790000Y-29160000D01*
X33550000Y-29490000D01*
G36*
X33550000Y-29490000D02*
G01*
X33310000Y-29160000D01*
X33790000Y-29160000D01*
X33550000Y-29490000D01*
G37*
%TO.C,F1*%
X34090000Y-17602064D02*
X34090000Y-16397936D01*
X35910000Y-17602064D02*
X35910000Y-16397936D01*
%TO.C,R3*%
X34762742Y-44477500D02*
X35237258Y-44477500D01*
X34762742Y-45522500D02*
X35237258Y-45522500D01*
%TO.C,L1*%
X39640000Y-31602064D02*
X39640000Y-30397936D01*
X42360000Y-31602064D02*
X42360000Y-30397936D01*
%TO.C,R2*%
X40762742Y-37477500D02*
X41237258Y-37477500D01*
X40762742Y-38522500D02*
X41237258Y-38522500D01*
%TO.C,C2*%
X34738748Y-37265000D02*
X35261252Y-37265000D01*
X34738748Y-38735000D02*
X35261252Y-38735000D01*
%TO.C,J4*%
X44130000Y-15670000D02*
X44130000Y-36110000D01*
X44130000Y-15670000D02*
X46730000Y-15670000D01*
X44130000Y-36110000D02*
X49330000Y-36110000D01*
X46730000Y-15670000D02*
X46730000Y-18270000D01*
X46730000Y-18270000D02*
X49330000Y-18270000D01*
X48000000Y-15670000D02*
X49330000Y-15670000D01*
X49330000Y-15670000D02*
X49330000Y-17000000D01*
X49330000Y-18270000D02*
X49330000Y-36110000D01*
%TO.C,U1*%
D10*
X2500000Y-4000000D02*
X30440000Y-4000000D01*
X2500000Y-6000000D02*
X4500000Y-4000000D01*
X2500000Y-66740000D02*
X2500000Y-4000000D01*
X30440000Y-4000000D02*
X30440000Y-66740000D01*
X30440000Y-66740000D02*
X2500000Y-66740000D01*
%TO.C,Q1*%
D12*
X40240000Y-15440000D02*
X41760000Y-15440000D01*
X40240000Y-15490000D02*
X40240000Y-15440000D01*
X40240000Y-17390000D02*
X40240000Y-16610000D01*
X40240000Y-18560000D02*
X40240000Y-18510000D01*
X41760000Y-15440000D02*
X41760000Y-16440000D01*
X41760000Y-17560000D02*
X41760000Y-18560000D01*
X41760000Y-18560000D02*
X40240000Y-18560000D01*
X39700000Y-16620000D02*
X39940000Y-16950000D01*
X39460000Y-16950000D01*
X39700000Y-16620000D01*
G36*
X39940000Y-16950000D02*
G01*
X39460000Y-16950000D01*
X39700000Y-16620000D01*
X39940000Y-16950000D01*
G37*
%TO.C,J1*%
X32150000Y-5250000D02*
X32150000Y-6500000D01*
X32450000Y-7800000D02*
X33200000Y-7800000D01*
X33200000Y-7800000D02*
X33200000Y-10750000D01*
X33200000Y-10750000D02*
X36250000Y-10750000D01*
X33400000Y-5250000D02*
X32150000Y-5250000D01*
X39300000Y-7800000D02*
X39300000Y-10750000D01*
X39300000Y-10750000D02*
X36250000Y-10750000D01*
X40050000Y-7800000D02*
X39300000Y-7800000D01*
X32440000Y-5540000D02*
X40060000Y-5540000D01*
X40060000Y-11510000D01*
X32440000Y-11510000D01*
X32440000Y-5540000D01*
X32450000Y-5550000D02*
X34250000Y-5550000D01*
X34250000Y-6300000D01*
X32450000Y-6300000D01*
X32450000Y-5550000D01*
X35750000Y-5550000D02*
X36750000Y-5550000D01*
X36750000Y-6300000D01*
X35750000Y-6300000D01*
X35750000Y-5550000D01*
X38250000Y-5550000D02*
X40050000Y-5550000D01*
X40050000Y-6300000D01*
X38250000Y-6300000D01*
X38250000Y-5550000D01*
%TO.C,R1*%
X34762742Y-23477500D02*
X35237258Y-23477500D01*
X34762742Y-24522500D02*
X35237258Y-24522500D01*
%TO.C,R4*%
X34477500Y-52237258D02*
X34477500Y-51762742D01*
X35522500Y-52237258D02*
X35522500Y-51762742D01*
%TO.C,C1*%
X40738748Y-23265000D02*
X41261252Y-23265000D01*
X40738748Y-24735000D02*
X41261252Y-24735000D01*
%TO.C,C3*%
X40640000Y-45107836D02*
X40640000Y-44892164D01*
X41360000Y-45107836D02*
X41360000Y-44892164D01*
%TD*%
M02*
