%TF.GenerationSoftware,KiCad,Pcbnew,10.0.3-10.0.3~ubuntu24.04.1*%
%TF.CreationDate,2026-07-21T11:16:54+03:00*%
%TF.ProjectId,tx_rf,74785f72-662e-46b6-9963-61645f706362,rev?*%
%TF.SameCoordinates,Original*%
%TF.FileFunction,Copper,L1,Top*%
%TF.FilePolarity,Positive*%
%FSLAX46Y46*%
G04 Gerber Fmt 4.6, Leading zero omitted, Abs format (unit mm)*
G04 Created by KiCad (PCBNEW 10.0.3-10.0.3~ubuntu24.04.1) date 2026-07-21 11:16:54*
%MOMM*%
%LPD*%
G01*
G04 APERTURE LIST*
G04 Aperture macros list*
%AMRoundRect*
0 Rectangle with rounded corners*
0 $1 Rounding radius*
0 $2 $3 $4 $5 $6 $7 $8 $9 X,Y pos of 4 corners*
0 Add a 4 corners polygon primitive as box body*
4,1,4,$2,$3,$4,$5,$6,$7,$8,$9,$2,$3,0*
0 Add four circle primitives for the rounded corners*
1,1,$1+$1,$2,$3*
1,1,$1+$1,$4,$5*
1,1,$1+$1,$6,$7*
1,1,$1+$1,$8,$9*
0 Add four rect primitives between the rounded corners*
20,1,$1+$1,$2,$3,$4,$5,0*
20,1,$1+$1,$4,$5,$6,$7,0*
20,1,$1+$1,$6,$7,$8,$9,0*
20,1,$1+$1,$8,$9,$2,$3,0*%
G04 Aperture macros list end*
%TA.AperFunction,SMDPad,CuDef*%
%ADD10RoundRect,0.150000X-0.150000X-0.700000X0.150000X-0.700000X0.150000X0.700000X-0.150000X0.700000X0*%
%TD*%
%TA.AperFunction,SMDPad,CuDef*%
%ADD11RoundRect,0.250000X-0.250000X-1.150000X0.250000X-1.150000X0.250000X1.150000X-0.250000X1.150000X0*%
%TD*%
%TA.AperFunction,SMDPad,CuDef*%
%ADD12RoundRect,0.200000X0.275000X-0.200000X0.275000X0.200000X-0.275000X0.200000X-0.275000X-0.200000X0*%
%TD*%
%TA.AperFunction,ComponentPad*%
%ADD13RoundRect,0.250000X0.675000X-0.675000X0.675000X0.675000X-0.675000X0.675000X-0.675000X-0.675000X0*%
%TD*%
%TA.AperFunction,ComponentPad*%
%ADD14C,1.850000*%
%TD*%
%TA.AperFunction,ComponentPad*%
%ADD15R,1.500000X2.000000*%
%TD*%
%TA.AperFunction,ComponentPad*%
%ADD16O,1.500000X2.000000*%
%TD*%
%TA.AperFunction,ComponentPad*%
%ADD17R,1.700000X1.700000*%
%TD*%
%TA.AperFunction,ComponentPad*%
%ADD18C,1.700000*%
%TD*%
G04 APERTURE END LIST*
D10*
%TO.P,J2,1*%
%TO.N,N/C*%
X4875000Y-11950000D03*
%TO.P,J2,2*%
%TO.N,PIXHAWK_TX*%
X6125000Y-11950000D03*
%TO.P,J2,3*%
%TO.N,PIXHAWK_RX*%
X7375000Y-11950000D03*
%TO.P,J2,4*%
%TO.N,N/C*%
X8625000Y-11950000D03*
%TO.P,J2,5*%
X9875000Y-11950000D03*
%TO.P,J2,6*%
%TO.N,GND*%
X11125000Y-11950000D03*
D11*
%TO.P,J2,MP*%
%TO.N,N/C*%
X3025000Y-8600000D03*
X12975000Y-8600000D03*
%TD*%
D12*
%TO.P,R5,1*%
%TO.N,LED_CTRL*%
X30000000Y-32825000D03*
%TO.P,R5,2*%
%TO.N,Net-(J5-Pad3)*%
X30000000Y-31175000D03*
%TD*%
D13*
%TO.P,J5,1*%
%TO.N,CONFIG_BTN*%
X30000000Y-22000000D03*
D14*
%TO.P,J5,2*%
%TO.N,GND*%
X30000000Y-17800000D03*
%TO.P,J5,3*%
%TO.N,Net-(J5-Pad3)*%
X30000000Y-13600000D03*
%TD*%
D15*
%TO.P,E1,1*%
%TO.N,E22_M0*%
X22000000Y-4000000D03*
D16*
%TO.P,E1,2*%
%TO.N,E22_M1*%
X19460000Y-4000000D03*
%TO.P,E1,3*%
%TO.N,E22_RXD*%
X16920000Y-4000000D03*
%TO.P,E1,4*%
%TO.N,E22_TXD*%
X14380000Y-4000000D03*
%TO.P,E1,5*%
%TO.N,E22_AUX*%
X11840000Y-4000000D03*
%TO.P,E1,6*%
%TO.N,E22_VCC*%
X9300000Y-4000000D03*
%TO.P,E1,7*%
%TO.N,GND*%
X6760000Y-4000000D03*
%TO.P,E1,8*%
X14560000Y-42500000D03*
%TO.P,E1,9*%
X17100000Y-42500000D03*
%TO.P,E1,10*%
X19640000Y-42500000D03*
%TO.P,E1,11*%
X22179999Y-42500000D03*
%TD*%
D17*
%TO.P,J4,1*%
%TO.N,GND*%
X48000000Y-8000000D03*
D18*
%TO.P,J4,2*%
X45460000Y-8000000D03*
%TO.P,J4,3*%
%TO.N,E22_VCC*%
X48000000Y-10540000D03*
%TO.P,J4,4*%
%TO.N,+3V3*%
X45460000Y-10540000D03*
%TO.P,J4,5*%
%TO.N,E22_TXD*%
X48000000Y-13080000D03*
%TO.P,J4,6*%
%TO.N,E22_RXD*%
X45460000Y-13080000D03*
%TO.P,J4,7*%
%TO.N,E22_M0*%
X48000000Y-15620000D03*
%TO.P,J4,8*%
%TO.N,E22_M1*%
X45460000Y-15620000D03*
%TO.P,J4,9*%
%TO.N,E22_AUX*%
X48000000Y-18160000D03*
%TO.P,J4,10*%
%TO.N,CONFIG_BTN*%
X45460000Y-18160000D03*
%TO.P,J4,11*%
%TO.N,LED_CTRL*%
X48000000Y-20700000D03*
%TO.P,J4,12*%
%TO.N,PIXHAWK_TX*%
X45460000Y-20700000D03*
%TO.P,J4,13*%
%TO.N,PIXHAWK_RX*%
X48000000Y-23240000D03*
%TO.P,J4,14*%
%TO.N,OLED_SDA*%
X45460000Y-23240000D03*
%TO.P,J4,15*%
%TO.N,OLED_SCL*%
X48000000Y-25780000D03*
%TO.P,J4,16*%
%TO.N,GND*%
X45460000Y-25780000D03*
%TD*%
M02*
