%TF.GenerationSoftware,KiCad,Pcbnew,10.0.3-10.0.3~ubuntu24.04.1*%
%TF.CreationDate,2026-07-21T11:16:54+03:00*%
%TF.ProjectId,tx_rf,74785f72-662e-46b6-9963-61645f706362,rev?*%
%TF.SameCoordinates,Original*%
%TF.FileFunction,Legend,Top*%
%TF.FilePolarity,Positive*%
%FSLAX46Y46*%
G04 Gerber Fmt 4.6, Leading zero omitted, Abs format (unit mm)*
G04 Created by KiCad (PCBNEW 10.0.3-10.0.3~ubuntu24.04.1) date 2026-07-21 11:16:54*
%MOMM*%
%LPD*%
G01*
G04 APERTURE LIST*
%ADD10C,0.150000*%
%ADD11C,0.158750*%
%ADD12C,0.120000*%
G04 APERTURE END LIST*
D10*
X7666666Y-5454819D02*
X7666666Y-6169104D01*
X7666666Y-6169104D02*
X7619047Y-6311961D01*
X7619047Y-6311961D02*
X7523809Y-6407200D01*
X7523809Y-6407200D02*
X7380952Y-6454819D01*
X7380952Y-6454819D02*
X7285714Y-6454819D01*
X8095238Y-5550057D02*
X8142857Y-5502438D01*
X8142857Y-5502438D02*
X8238095Y-5454819D01*
X8238095Y-5454819D02*
X8476190Y-5454819D01*
X8476190Y-5454819D02*
X8571428Y-5502438D01*
X8571428Y-5502438D02*
X8619047Y-5550057D01*
X8619047Y-5550057D02*
X8666666Y-5645295D01*
X8666666Y-5645295D02*
X8666666Y-5740533D01*
X8666666Y-5740533D02*
X8619047Y-5883390D01*
X8619047Y-5883390D02*
X8047619Y-6454819D01*
X8047619Y-6454819D02*
X8666666Y-6454819D01*
D11*
X28306666Y-4579271D02*
X28306666Y-3309271D01*
X28306666Y-3309271D02*
X28730000Y-4216414D01*
X28730000Y-4216414D02*
X29153333Y-3309271D01*
X29153333Y-3309271D02*
X29153333Y-4579271D01*
X29758095Y-4579271D02*
X29758095Y-3309271D01*
X29758095Y-3914033D02*
X30483810Y-3914033D01*
X30483810Y-4579271D02*
X30483810Y-3309271D01*
X31753810Y-4579271D02*
X31028095Y-4579271D01*
X31390952Y-4579271D02*
X31390952Y-3309271D01*
X31390952Y-3309271D02*
X31270000Y-3490699D01*
X31270000Y-3490699D02*
X31149048Y-3611652D01*
X31149048Y-3611652D02*
X31028095Y-3672128D01*
D10*
X29024819Y-32166666D02*
X28548628Y-32499999D01*
X29024819Y-32738094D02*
X28024819Y-32738094D01*
X28024819Y-32738094D02*
X28024819Y-32357142D01*
X28024819Y-32357142D02*
X28072438Y-32261904D01*
X28072438Y-32261904D02*
X28120057Y-32214285D01*
X28120057Y-32214285D02*
X28215295Y-32166666D01*
X28215295Y-32166666D02*
X28358152Y-32166666D01*
X28358152Y-32166666D02*
X28453390Y-32214285D01*
X28453390Y-32214285D02*
X28501009Y-32261904D01*
X28501009Y-32261904D02*
X28548628Y-32357142D01*
X28548628Y-32357142D02*
X28548628Y-32738094D01*
X28024819Y-31261904D02*
X28024819Y-31738094D01*
X28024819Y-31738094D02*
X28501009Y-31785713D01*
X28501009Y-31785713D02*
X28453390Y-31738094D01*
X28453390Y-31738094D02*
X28405771Y-31642856D01*
X28405771Y-31642856D02*
X28405771Y-31404761D01*
X28405771Y-31404761D02*
X28453390Y-31309523D01*
X28453390Y-31309523D02*
X28501009Y-31261904D01*
X28501009Y-31261904D02*
X28596247Y-31214285D01*
X28596247Y-31214285D02*
X28834342Y-31214285D01*
X28834342Y-31214285D02*
X28929580Y-31261904D01*
X28929580Y-31261904D02*
X28977200Y-31309523D01*
X28977200Y-31309523D02*
X29024819Y-31404761D01*
X29024819Y-31404761D02*
X29024819Y-31642856D01*
X29024819Y-31642856D02*
X28977200Y-31738094D01*
X28977200Y-31738094D02*
X28929580Y-31785713D01*
D11*
X28306666Y-56579271D02*
X28306666Y-55309271D01*
X28306666Y-55309271D02*
X28730000Y-56216414D01*
X28730000Y-56216414D02*
X29153333Y-55309271D01*
X29153333Y-55309271D02*
X29153333Y-56579271D01*
X29758095Y-56579271D02*
X29758095Y-55309271D01*
X29758095Y-55914033D02*
X30483810Y-55914033D01*
X30483810Y-56579271D02*
X30483810Y-55309271D01*
X30967619Y-55309271D02*
X31753810Y-55309271D01*
X31753810Y-55309271D02*
X31330476Y-55793080D01*
X31330476Y-55793080D02*
X31511905Y-55793080D01*
X31511905Y-55793080D02*
X31632857Y-55853556D01*
X31632857Y-55853556D02*
X31693333Y-55914033D01*
X31693333Y-55914033D02*
X31753810Y-56034985D01*
X31753810Y-56034985D02*
X31753810Y-56337366D01*
X31753810Y-56337366D02*
X31693333Y-56458318D01*
X31693333Y-56458318D02*
X31632857Y-56518795D01*
X31632857Y-56518795D02*
X31511905Y-56579271D01*
X31511905Y-56579271D02*
X31149048Y-56579271D01*
X31149048Y-56579271D02*
X31028095Y-56518795D01*
X31028095Y-56518795D02*
X30967619Y-56458318D01*
X43306666Y-4579271D02*
X43306666Y-3309271D01*
X43306666Y-3309271D02*
X43730000Y-4216414D01*
X43730000Y-4216414D02*
X44153333Y-3309271D01*
X44153333Y-3309271D02*
X44153333Y-4579271D01*
X44758095Y-4579271D02*
X44758095Y-3309271D01*
X44758095Y-3914033D02*
X45483810Y-3914033D01*
X45483810Y-4579271D02*
X45483810Y-3309271D01*
X46028095Y-3430223D02*
X46088571Y-3369747D01*
X46088571Y-3369747D02*
X46209524Y-3309271D01*
X46209524Y-3309271D02*
X46511905Y-3309271D01*
X46511905Y-3309271D02*
X46632857Y-3369747D01*
X46632857Y-3369747D02*
X46693333Y-3430223D01*
X46693333Y-3430223D02*
X46753810Y-3551175D01*
X46753810Y-3551175D02*
X46753810Y-3672128D01*
X46753810Y-3672128D02*
X46693333Y-3853556D01*
X46693333Y-3853556D02*
X45967619Y-4579271D01*
X45967619Y-4579271D02*
X46753810Y-4579271D01*
X43306666Y-56579271D02*
X43306666Y-55309271D01*
X43306666Y-55309271D02*
X43730000Y-56216414D01*
X43730000Y-56216414D02*
X44153333Y-55309271D01*
X44153333Y-55309271D02*
X44153333Y-56579271D01*
X44758095Y-56579271D02*
X44758095Y-55309271D01*
X44758095Y-55914033D02*
X45483810Y-55914033D01*
X45483810Y-56579271D02*
X45483810Y-55309271D01*
X46632857Y-55732604D02*
X46632857Y-56579271D01*
X46330476Y-55248795D02*
X46028095Y-56155937D01*
X46028095Y-56155937D02*
X46814286Y-56155937D01*
D10*
X27334819Y-18133333D02*
X28049104Y-18133333D01*
X28049104Y-18133333D02*
X28191961Y-18180952D01*
X28191961Y-18180952D02*
X28287200Y-18276190D01*
X28287200Y-18276190D02*
X28334819Y-18419047D01*
X28334819Y-18419047D02*
X28334819Y-18514285D01*
X27334819Y-17180952D02*
X27334819Y-17657142D01*
X27334819Y-17657142D02*
X27811009Y-17704761D01*
X27811009Y-17704761D02*
X27763390Y-17657142D01*
X27763390Y-17657142D02*
X27715771Y-17561904D01*
X27715771Y-17561904D02*
X27715771Y-17323809D01*
X27715771Y-17323809D02*
X27763390Y-17228571D01*
X27763390Y-17228571D02*
X27811009Y-17180952D01*
X27811009Y-17180952D02*
X27906247Y-17133333D01*
X27906247Y-17133333D02*
X28144342Y-17133333D01*
X28144342Y-17133333D02*
X28239580Y-17180952D01*
X28239580Y-17180952D02*
X28287200Y-17228571D01*
X28287200Y-17228571D02*
X28334819Y-17323809D01*
X28334819Y-17323809D02*
X28334819Y-17561904D01*
X28334819Y-17561904D02*
X28287200Y-17657142D01*
X28287200Y-17657142D02*
X28239580Y-17704761D01*
%TO.C,J2*%
D12*
X2515000Y-10260000D02*
X2515000Y-11860000D01*
X2515000Y-11860000D02*
X4315000Y-11860000D01*
X3785000Y-7390000D02*
X12215000Y-7390000D01*
X4315000Y-11860000D02*
X4315000Y-12800000D01*
X13485000Y-10260000D02*
X13485000Y-11860000D01*
X13485000Y-11860000D02*
X11685000Y-11860000D01*
%TO.C,R5*%
X29477500Y-32237258D02*
X29477500Y-31762742D01*
X30522500Y-32237258D02*
X30522500Y-31762742D01*
%TD*%
M02*
