%TF.GenerationSoftware,KiCad,Pcbnew,10.0.3-10.0.3~ubuntu24.04.1*%
%TF.CreationDate,2026-07-21T11:16:54+03:00*%
%TF.ProjectId,tx_rf,74785f72-662e-46b6-9963-61645f706362,rev?*%
%TF.SameCoordinates,Original*%
%TF.FileFunction,Legend,Bot*%
%TF.FilePolarity,Positive*%
%FSLAX46Y46*%
G04 Gerber Fmt 4.6, Leading zero omitted, Abs format (unit mm)*
G04 Created by KiCad (PCBNEW 10.0.3-10.0.3~ubuntu24.04.1) date 2026-07-21 11:16:54*
%MOMM*%
%LPD*%
G01*
G04 APERTURE LIST*
%ADD10C,0.150000*%
%ADD11C,0.120000*%
G04 APERTURE END LIST*
D10*
X27070475Y-431009D02*
X26737142Y-431009D01*
X26594285Y-954819D02*
X27070475Y-954819D01*
X27070475Y-954819D02*
X27070475Y45180D01*
X27070475Y45180D02*
X26594285Y45180D01*
X25641904Y-954819D02*
X26213332Y-954819D01*
X25927618Y-954819D02*
X25927618Y45180D01*
X25927618Y45180D02*
X26022856Y-97676D01*
X26022856Y-97676D02*
X26118094Y-192914D01*
X26118094Y-192914D02*
X26213332Y-240533D01*
X47063333Y-5074819D02*
X47063333Y-5789104D01*
X47063333Y-5789104D02*
X47110952Y-5931961D01*
X47110952Y-5931961D02*
X47206190Y-6027200D01*
X47206190Y-6027200D02*
X47349047Y-6074819D01*
X47349047Y-6074819D02*
X47444285Y-6074819D01*
X46158571Y-5408152D02*
X46158571Y-6074819D01*
X46396666Y-5027200D02*
X46634761Y-5741485D01*
X46634761Y-5741485D02*
X46015714Y-5741485D01*
%TO.C,E1*%
X2380000Y-2500000D02*
X2380000Y-45500000D01*
X2380000Y-45500000D02*
X26380000Y-45500000D01*
X26380000Y-2500000D02*
X2380000Y-2500000D01*
X26380000Y-4500000D02*
X24380000Y-2500000D01*
X26380000Y-45500000D02*
X26380000Y-2500000D01*
%TO.C,J4*%
D11*
X44080000Y-6620000D02*
X44080000Y-27160000D01*
X46730000Y-6620000D02*
X44080000Y-6620000D01*
X46730000Y-9270000D02*
X46730000Y-6620000D01*
X49380000Y-6620000D02*
X48000000Y-6620000D01*
X49380000Y-8000000D02*
X49380000Y-6620000D01*
X49380000Y-9270000D02*
X46730000Y-9270000D01*
X49380000Y-9270000D02*
X49380000Y-27160000D01*
X49380000Y-27160000D02*
X44080000Y-27160000D01*
%TD*%
M02*
