%TF.GenerationSoftware,KiCad,Pcbnew,10.0.3-10.0.3~ubuntu24.04.1*%
%TF.CreationDate,2026-07-21T11:16:55+03:00*%
%TF.ProjectId,rx_rf,72785f72-662e-46b6-9963-61645f706362,rev?*%
%TF.SameCoordinates,Original*%
%TF.FileFunction,Legend,Top*%
%TF.FilePolarity,Positive*%
%FSLAX46Y46*%
G04 Gerber Fmt 4.6, Leading zero omitted, Abs format (unit mm)*
G04 Created by KiCad (PCBNEW 10.0.3-10.0.3~ubuntu24.04.1) date 2026-07-21 11:16:55*
%MOMM*%
%LPD*%
G01*
G04 APERTURE LIST*
%ADD10C,0.158750*%
%ADD11C,0.150000*%
%ADD12C,0.120000*%
G04 APERTURE END LIST*
D10*
X43306666Y-4579271D02*
X43306666Y-3309271D01*
X43306666Y-3309271D02*
X43730000Y-4216414D01*
X43730000Y-4216414D02*
X44153333Y-3309271D01*
X44153333Y-3309271D02*
X44153333Y-4579271D01*
X44758095Y-4579271D02*
X44758095Y-3309271D01*
X44758095Y-3914033D02*
X45483810Y-3914033D01*
X45483810Y-4579271D02*
X45483810Y-3309271D01*
X46028095Y-3430223D02*
X46088571Y-3369747D01*
X46088571Y-3369747D02*
X46209524Y-3309271D01*
X46209524Y-3309271D02*
X46511905Y-3309271D01*
X46511905Y-3309271D02*
X46632857Y-3369747D01*
X46632857Y-3369747D02*
X46693333Y-3430223D01*
X46693333Y-3430223D02*
X46753810Y-3551175D01*
X46753810Y-3551175D02*
X46753810Y-3672128D01*
X46753810Y-3672128D02*
X46693333Y-3853556D01*
X46693333Y-3853556D02*
X45967619Y-4579271D01*
X45967619Y-4579271D02*
X46753810Y-4579271D01*
D11*
X27334819Y-43133333D02*
X28049104Y-43133333D01*
X28049104Y-43133333D02*
X28191961Y-43180952D01*
X28191961Y-43180952D02*
X28287200Y-43276190D01*
X28287200Y-43276190D02*
X28334819Y-43419047D01*
X28334819Y-43419047D02*
X28334819Y-43514285D01*
X27334819Y-42180952D02*
X27334819Y-42657142D01*
X27334819Y-42657142D02*
X27811009Y-42704761D01*
X27811009Y-42704761D02*
X27763390Y-42657142D01*
X27763390Y-42657142D02*
X27715771Y-42561904D01*
X27715771Y-42561904D02*
X27715771Y-42323809D01*
X27715771Y-42323809D02*
X27763390Y-42228571D01*
X27763390Y-42228571D02*
X27811009Y-42180952D01*
X27811009Y-42180952D02*
X27906247Y-42133333D01*
X27906247Y-42133333D02*
X28144342Y-42133333D01*
X28144342Y-42133333D02*
X28239580Y-42180952D01*
X28239580Y-42180952D02*
X28287200Y-42228571D01*
X28287200Y-42228571D02*
X28334819Y-42323809D01*
X28334819Y-42323809D02*
X28334819Y-42561904D01*
X28334819Y-42561904D02*
X28287200Y-42657142D01*
X28287200Y-42657142D02*
X28239580Y-42704761D01*
X29666666Y-19074819D02*
X29666666Y-19789104D01*
X29666666Y-19789104D02*
X29619047Y-19931961D01*
X29619047Y-19931961D02*
X29523809Y-20027200D01*
X29523809Y-20027200D02*
X29380952Y-20074819D01*
X29380952Y-20074819D02*
X29285714Y-20074819D01*
X30047619Y-19074819D02*
X30666666Y-19074819D01*
X30666666Y-19074819D02*
X30333333Y-19455771D01*
X30333333Y-19455771D02*
X30476190Y-19455771D01*
X30476190Y-19455771D02*
X30571428Y-19503390D01*
X30571428Y-19503390D02*
X30619047Y-19551009D01*
X30619047Y-19551009D02*
X30666666Y-19646247D01*
X30666666Y-19646247D02*
X30666666Y-19884342D01*
X30666666Y-19884342D02*
X30619047Y-19979580D01*
X30619047Y-19979580D02*
X30571428Y-20027200D01*
X30571428Y-20027200D02*
X30476190Y-20074819D01*
X30476190Y-20074819D02*
X30190476Y-20074819D01*
X30190476Y-20074819D02*
X30095238Y-20027200D01*
X30095238Y-20027200D02*
X30047619Y-19979580D01*
D10*
X43306666Y-56579271D02*
X43306666Y-55309271D01*
X43306666Y-55309271D02*
X43730000Y-56216414D01*
X43730000Y-56216414D02*
X44153333Y-55309271D01*
X44153333Y-55309271D02*
X44153333Y-56579271D01*
X44758095Y-56579271D02*
X44758095Y-55309271D01*
X44758095Y-55914033D02*
X45483810Y-55914033D01*
X45483810Y-56579271D02*
X45483810Y-55309271D01*
X46632857Y-55732604D02*
X46632857Y-56579271D01*
X46330476Y-55248795D02*
X46028095Y-56155937D01*
X46028095Y-56155937D02*
X46814286Y-56155937D01*
D11*
X11833333Y-31024819D02*
X11500000Y-30548628D01*
X11261905Y-31024819D02*
X11261905Y-30024819D01*
X11261905Y-30024819D02*
X11642857Y-30024819D01*
X11642857Y-30024819D02*
X11738095Y-30072438D01*
X11738095Y-30072438D02*
X11785714Y-30120057D01*
X11785714Y-30120057D02*
X11833333Y-30215295D01*
X11833333Y-30215295D02*
X11833333Y-30358152D01*
X11833333Y-30358152D02*
X11785714Y-30453390D01*
X11785714Y-30453390D02*
X11738095Y-30501009D01*
X11738095Y-30501009D02*
X11642857Y-30548628D01*
X11642857Y-30548628D02*
X11261905Y-30548628D01*
X12166667Y-30024819D02*
X12833333Y-30024819D01*
X12833333Y-30024819D02*
X12404762Y-31024819D01*
D10*
X28306666Y-4579271D02*
X28306666Y-3309271D01*
X28306666Y-3309271D02*
X28730000Y-4216414D01*
X28730000Y-4216414D02*
X29153333Y-3309271D01*
X29153333Y-3309271D02*
X29153333Y-4579271D01*
X29758095Y-4579271D02*
X29758095Y-3309271D01*
X29758095Y-3914033D02*
X30483810Y-3914033D01*
X30483810Y-4579271D02*
X30483810Y-3309271D01*
X31753810Y-4579271D02*
X31028095Y-4579271D01*
X31390952Y-4579271D02*
X31390952Y-3309271D01*
X31390952Y-3309271D02*
X31270000Y-3490699D01*
X31270000Y-3490699D02*
X31149048Y-3611652D01*
X31149048Y-3611652D02*
X31028095Y-3672128D01*
D11*
X11833333Y-24024819D02*
X11500000Y-23548628D01*
X11261905Y-24024819D02*
X11261905Y-23024819D01*
X11261905Y-23024819D02*
X11642857Y-23024819D01*
X11642857Y-23024819D02*
X11738095Y-23072438D01*
X11738095Y-23072438D02*
X11785714Y-23120057D01*
X11785714Y-23120057D02*
X11833333Y-23215295D01*
X11833333Y-23215295D02*
X11833333Y-23358152D01*
X11833333Y-23358152D02*
X11785714Y-23453390D01*
X11785714Y-23453390D02*
X11738095Y-23501009D01*
X11738095Y-23501009D02*
X11642857Y-23548628D01*
X11642857Y-23548628D02*
X11261905Y-23548628D01*
X12690476Y-23024819D02*
X12500000Y-23024819D01*
X12500000Y-23024819D02*
X12404762Y-23072438D01*
X12404762Y-23072438D02*
X12357143Y-23120057D01*
X12357143Y-23120057D02*
X12261905Y-23262914D01*
X12261905Y-23262914D02*
X12214286Y-23453390D01*
X12214286Y-23453390D02*
X12214286Y-23834342D01*
X12214286Y-23834342D02*
X12261905Y-23929580D01*
X12261905Y-23929580D02*
X12309524Y-23977200D01*
X12309524Y-23977200D02*
X12404762Y-24024819D01*
X12404762Y-24024819D02*
X12595238Y-24024819D01*
X12595238Y-24024819D02*
X12690476Y-23977200D01*
X12690476Y-23977200D02*
X12738095Y-23929580D01*
X12738095Y-23929580D02*
X12785714Y-23834342D01*
X12785714Y-23834342D02*
X12785714Y-23596247D01*
X12785714Y-23596247D02*
X12738095Y-23501009D01*
X12738095Y-23501009D02*
X12690476Y-23453390D01*
X12690476Y-23453390D02*
X12595238Y-23405771D01*
X12595238Y-23405771D02*
X12404762Y-23405771D01*
X12404762Y-23405771D02*
X12309524Y-23453390D01*
X12309524Y-23453390D02*
X12261905Y-23501009D01*
X12261905Y-23501009D02*
X12214286Y-23596247D01*
X11833333Y-19024819D02*
X11500000Y-18548628D01*
X11261905Y-19024819D02*
X11261905Y-18024819D01*
X11261905Y-18024819D02*
X11642857Y-18024819D01*
X11642857Y-18024819D02*
X11738095Y-18072438D01*
X11738095Y-18072438D02*
X11785714Y-18120057D01*
X11785714Y-18120057D02*
X11833333Y-18215295D01*
X11833333Y-18215295D02*
X11833333Y-18358152D01*
X11833333Y-18358152D02*
X11785714Y-18453390D01*
X11785714Y-18453390D02*
X11738095Y-18501009D01*
X11738095Y-18501009D02*
X11642857Y-18548628D01*
X11642857Y-18548628D02*
X11261905Y-18548628D01*
X12738095Y-18024819D02*
X12261905Y-18024819D01*
X12261905Y-18024819D02*
X12214286Y-18501009D01*
X12214286Y-18501009D02*
X12261905Y-18453390D01*
X12261905Y-18453390D02*
X12357143Y-18405771D01*
X12357143Y-18405771D02*
X12595238Y-18405771D01*
X12595238Y-18405771D02*
X12690476Y-18453390D01*
X12690476Y-18453390D02*
X12738095Y-18501009D01*
X12738095Y-18501009D02*
X12785714Y-18596247D01*
X12785714Y-18596247D02*
X12785714Y-18834342D01*
X12785714Y-18834342D02*
X12738095Y-18929580D01*
X12738095Y-18929580D02*
X12690476Y-18977200D01*
X12690476Y-18977200D02*
X12595238Y-19024819D01*
X12595238Y-19024819D02*
X12357143Y-19024819D01*
X12357143Y-19024819D02*
X12261905Y-18977200D01*
X12261905Y-18977200D02*
X12214286Y-18929580D01*
D10*
X28306666Y-56579271D02*
X28306666Y-55309271D01*
X28306666Y-55309271D02*
X28730000Y-56216414D01*
X28730000Y-56216414D02*
X29153333Y-55309271D01*
X29153333Y-55309271D02*
X29153333Y-56579271D01*
X29758095Y-56579271D02*
X29758095Y-55309271D01*
X29758095Y-55914033D02*
X30483810Y-55914033D01*
X30483810Y-56579271D02*
X30483810Y-55309271D01*
X30967619Y-55309271D02*
X31753810Y-55309271D01*
X31753810Y-55309271D02*
X31330476Y-55793080D01*
X31330476Y-55793080D02*
X31511905Y-55793080D01*
X31511905Y-55793080D02*
X31632857Y-55853556D01*
X31632857Y-55853556D02*
X31693333Y-55914033D01*
X31693333Y-55914033D02*
X31753810Y-56034985D01*
X31753810Y-56034985D02*
X31753810Y-56337366D01*
X31753810Y-56337366D02*
X31693333Y-56458318D01*
X31693333Y-56458318D02*
X31632857Y-56518795D01*
X31632857Y-56518795D02*
X31511905Y-56579271D01*
X31511905Y-56579271D02*
X31149048Y-56579271D01*
X31149048Y-56579271D02*
X31028095Y-56518795D01*
X31028095Y-56518795D02*
X30967619Y-56458318D01*
%TO.C,J3*%
D12*
X28620000Y-20620000D02*
X30000000Y-20620000D01*
X28620000Y-22000000D02*
X28620000Y-20620000D01*
X28620000Y-23270000D02*
X28620000Y-31000000D01*
X28620000Y-23270000D02*
X31380000Y-23270000D01*
X28620000Y-31000000D02*
X31380000Y-31000000D01*
X31380000Y-23270000D02*
X31380000Y-31000000D01*
%TO.C,R7*%
X11762742Y-31477500D02*
X12237258Y-31477500D01*
X11762742Y-32522500D02*
X12237258Y-32522500D01*
%TO.C,R6*%
X11762742Y-24477500D02*
X12237258Y-24477500D01*
X11762742Y-25522500D02*
X12237258Y-25522500D01*
%TO.C,R5*%
X11762742Y-19477500D02*
X12237258Y-19477500D01*
X11762742Y-20522500D02*
X12237258Y-20522500D01*
%TD*%
M02*
